<mxfile host="app.diagrams.net" modified="2022-01-28T15:10:38.395Z" agent="5.0 (Windows)" etag="slgr5FDalAVW7fm3AEbO" version="16.4.3" type="github">
  <diagram id="R2lEEEUBdFMjLlhIrx00" name="Page-1">
    <mxGraphModel dx="2523" dy="918" grid="1" gridSize="10" guides="1" tooltips="1" connect="1" arrows="1" fold="1" page="1" pageScale="1" pageWidth="850" pageHeight="1100" background="#000000" math="0" shadow="0" extFonts="Permanent Marker^https://fonts.googleapis.com/css?family=Permanent+Marker">
      <root>
        <mxCell id="0" />
        <mxCell id="1" parent="0" />
        <mxCell id="efmwLorqoiXp0ajTO6VS-8" style="edgeStyle=orthogonalEdgeStyle;rounded=0;orthogonalLoop=1;jettySize=auto;html=1;exitX=0.5;exitY=1;exitDx=0;exitDy=0;entryX=0.5;entryY=0;entryDx=0;entryDy=0;fontColor=#FFFFFF;strokeColor=#FFFFFF;strokeWidth=3;" edge="1" parent="1" source="C2MSrWPjQYjPBHMFW9kM-3" target="efmwLorqoiXp0ajTO6VS-7">
          <mxGeometry relative="1" as="geometry" />
        </mxCell>
        <mxCell id="efmwLorqoiXp0ajTO6VS-18" style="edgeStyle=orthogonalEdgeStyle;rounded=0;orthogonalLoop=1;jettySize=auto;html=1;entryX=0.5;entryY=0;entryDx=0;entryDy=0;fontColor=#FFFFFF;strokeColor=#FFFFFF;strokeWidth=3;exitX=0.5;exitY=1;exitDx=0;exitDy=0;" edge="1" parent="1" source="C2MSrWPjQYjPBHMFW9kM-3" target="efmwLorqoiXp0ajTO6VS-1">
          <mxGeometry relative="1" as="geometry">
            <mxPoint x="350" y="320" as="sourcePoint" />
          </mxGeometry>
        </mxCell>
        <mxCell id="C2MSrWPjQYjPBHMFW9kM-3" value="XR Device security policy" style="ellipse;whiteSpace=wrap;html=1;fontColor=#FFFFFF;strokeColor=#FFFFFF;strokeWidth=3;shadow=0;fillOpacity=0;" parent="1" vertex="1">
          <mxGeometry x="380" y="260" width="180" height="60" as="geometry" />
        </mxCell>
        <mxCell id="C2MSrWPjQYjPBHMFW9kM-18" style="edgeStyle=orthogonalEdgeStyle;rounded=0;orthogonalLoop=1;jettySize=auto;html=1;exitX=0.5;exitY=1;exitDx=0;exitDy=0;entryX=0.5;entryY=0;entryDx=0;entryDy=0;fontColor=#FFFFFF;strokeColor=#FFFFFF;strokeWidth=3;shadow=0;fillOpacity=0;" parent="1" source="C2MSrWPjQYjPBHMFW9kM-7" target="C2MSrWPjQYjPBHMFW9kM-10" edge="1">
          <mxGeometry relative="1" as="geometry">
            <mxPoint x="10" y="630" as="targetPoint" />
          </mxGeometry>
        </mxCell>
        <mxCell id="C2MSrWPjQYjPBHMFW9kM-7" value="Hardware Security" style="ellipse;whiteSpace=wrap;html=1;fontColor=#FFFFFF;strokeColor=#FFFFFF;strokeWidth=3;shadow=0;fillOpacity=0;" parent="1" vertex="1">
          <mxGeometry x="-50" y="510" width="120" height="30" as="geometry" />
        </mxCell>
        <mxCell id="C2MSrWPjQYjPBHMFW9kM-9" value="Chip Vulnerabilities" style="ellipse;whiteSpace=wrap;html=1;fontColor=#FFFFFF;strokeColor=#FFFFFF;strokeWidth=3;shadow=0;fillOpacity=0;" parent="1" vertex="1">
          <mxGeometry x="-170" y="612.5" width="120" height="30" as="geometry" />
        </mxCell>
        <mxCell id="C2MSrWPjQYjPBHMFW9kM-10" value="Supply Chain Security" style="ellipse;whiteSpace=wrap;html=1;fontColor=#FFFFFF;strokeColor=#FFFFFF;strokeWidth=3;shadow=0;fillOpacity=0;" parent="1" vertex="1">
          <mxGeometry x="-55" y="660" width="130" height="35" as="geometry" />
        </mxCell>
        <mxCell id="C2MSrWPjQYjPBHMFW9kM-11" value="EM Communication" style="ellipse;whiteSpace=wrap;html=1;fontColor=#FFFFFF;strokeColor=#FFFFFF;strokeWidth=3;shadow=0;fillOpacity=0;" parent="1" vertex="1">
          <mxGeometry x="80" y="612.5" width="120" height="35" as="geometry" />
        </mxCell>
        <mxCell id="C2MSrWPjQYjPBHMFW9kM-12" value="Software Vulnerabilites" style="ellipse;whiteSpace=wrap;html=1;fontColor=#FFFFFF;strokeColor=#FFFFFF;strokeWidth=3;shadow=0;fillOpacity=0;" parent="1" vertex="1">
          <mxGeometry x="400" y="612.5" width="150" height="37.5" as="geometry" />
        </mxCell>
        <mxCell id="C2MSrWPjQYjPBHMFW9kM-13" value="Data Transmitted" style="ellipse;whiteSpace=wrap;html=1;fontColor=#FFFFFF;strokeColor=#FFFFFF;strokeWidth=3;shadow=0;fillOpacity=0;" parent="1" vertex="1">
          <mxGeometry x="240" y="612.5" width="120" height="32.5" as="geometry" />
        </mxCell>
        <mxCell id="C2MSrWPjQYjPBHMFW9kM-16" style="edgeStyle=orthogonalEdgeStyle;rounded=0;orthogonalLoop=1;jettySize=auto;html=1;exitX=0.5;exitY=1;exitDx=0;exitDy=0;entryX=0.5;entryY=0;entryDx=0;entryDy=0;fontColor=#FFFFFF;strokeColor=#FFFFFF;strokeWidth=3;shadow=0;fillOpacity=0;" parent="1" source="C2MSrWPjQYjPBHMFW9kM-8" target="C2MSrWPjQYjPBHMFW9kM-13" edge="1">
          <mxGeometry relative="1" as="geometry">
            <mxPoint x="390" y="570" as="targetPoint" />
            <Array as="points">
              <mxPoint x="390" y="570" />
              <mxPoint x="300" y="570" />
            </Array>
          </mxGeometry>
        </mxCell>
        <mxCell id="C2MSrWPjQYjPBHMFW9kM-8" value="Software Security" style="ellipse;whiteSpace=wrap;html=1;fontColor=#FFFFFF;strokeColor=#FFFFFF;strokeWidth=3;shadow=0;fillOpacity=0;" parent="1" vertex="1">
          <mxGeometry x="330" y="510" width="120" height="30" as="geometry" />
        </mxCell>
        <mxCell id="C2MSrWPjQYjPBHMFW9kM-17" style="edgeStyle=orthogonalEdgeStyle;rounded=0;orthogonalLoop=1;jettySize=auto;html=1;entryX=0.5;entryY=0;entryDx=0;entryDy=0;fontColor=#FFFFFF;strokeColor=#FFFFFF;strokeWidth=3;shadow=0;fillOpacity=0;" parent="1" target="C2MSrWPjQYjPBHMFW9kM-12" edge="1">
          <mxGeometry relative="1" as="geometry">
            <mxPoint x="474.5" y="590" as="targetPoint" />
            <mxPoint x="390" y="540" as="sourcePoint" />
            <Array as="points">
              <mxPoint x="390" y="570" />
              <mxPoint x="475" y="570" />
            </Array>
          </mxGeometry>
        </mxCell>
        <mxCell id="C2MSrWPjQYjPBHMFW9kM-19" style="edgeStyle=orthogonalEdgeStyle;rounded=0;orthogonalLoop=1;jettySize=auto;html=1;entryX=0.5;entryY=0;entryDx=0;entryDy=0;fontColor=#FFFFFF;strokeColor=#FFFFFF;strokeWidth=3;shadow=0;fillOpacity=0;" parent="1" target="C2MSrWPjQYjPBHMFW9kM-11" edge="1">
          <mxGeometry relative="1" as="geometry">
            <mxPoint x="50" y="645" as="targetPoint" />
            <mxPoint x="10" y="540" as="sourcePoint" />
            <Array as="points">
              <mxPoint x="10" y="600" />
              <mxPoint x="140" y="600" />
            </Array>
          </mxGeometry>
        </mxCell>
        <mxCell id="C2MSrWPjQYjPBHMFW9kM-20" style="edgeStyle=orthogonalEdgeStyle;rounded=0;orthogonalLoop=1;jettySize=auto;html=1;exitX=0.5;exitY=1;exitDx=0;exitDy=0;entryX=0.5;entryY=0;entryDx=0;entryDy=0;fontColor=#FFFFFF;strokeColor=#FFFFFF;strokeWidth=3;shadow=0;fillOpacity=0;" parent="1" source="C2MSrWPjQYjPBHMFW9kM-7" target="C2MSrWPjQYjPBHMFW9kM-9" edge="1">
          <mxGeometry relative="1" as="geometry">
            <mxPoint x="-20" y="642.5" as="targetPoint" />
            <mxPoint x="-20" y="552.5" as="sourcePoint" />
            <Array as="points">
              <mxPoint x="10" y="600" />
              <mxPoint x="-110" y="600" />
            </Array>
          </mxGeometry>
        </mxCell>
        <mxCell id="efmwLorqoiXp0ajTO6VS-3" style="edgeStyle=orthogonalEdgeStyle;rounded=0;orthogonalLoop=1;jettySize=auto;html=1;exitX=0.5;exitY=1;exitDx=0;exitDy=0;entryX=0.5;entryY=0;entryDx=0;entryDy=0;fontColor=#FFFFFF;strokeColor=#FFFFFF;strokeWidth=3;" edge="1" parent="1" source="efmwLorqoiXp0ajTO6VS-1" target="C2MSrWPjQYjPBHMFW9kM-7">
          <mxGeometry relative="1" as="geometry">
            <Array as="points">
              <mxPoint x="215" y="460" />
              <mxPoint x="10" y="460" />
            </Array>
          </mxGeometry>
        </mxCell>
        <mxCell id="efmwLorqoiXp0ajTO6VS-6" style="edgeStyle=orthogonalEdgeStyle;rounded=0;orthogonalLoop=1;jettySize=auto;html=1;exitX=0.5;exitY=1;exitDx=0;exitDy=0;entryX=0.5;entryY=0;entryDx=0;entryDy=0;fontColor=#FFFFFF;strokeColor=#FFFFFF;strokeWidth=3;" edge="1" parent="1" source="efmwLorqoiXp0ajTO6VS-1" target="C2MSrWPjQYjPBHMFW9kM-8">
          <mxGeometry relative="1" as="geometry">
            <Array as="points">
              <mxPoint x="215" y="460" />
              <mxPoint x="390" y="460" />
            </Array>
          </mxGeometry>
        </mxCell>
        <mxCell id="efmwLorqoiXp0ajTO6VS-1" value="&lt;font color=&quot;#FFFFFF&quot;&gt;Device Whitelist&lt;br&gt;&lt;/font&gt;" style="ellipse;whiteSpace=wrap;html=1;gradientColor=none;fillColor=none;strokeWidth=3;strokeColor=#FFFFFF;" vertex="1" parent="1">
          <mxGeometry x="150" y="380" width="130" height="47.5" as="geometry" />
        </mxCell>
        <mxCell id="efmwLorqoiXp0ajTO6VS-9" style="edgeStyle=orthogonalEdgeStyle;rounded=0;orthogonalLoop=1;jettySize=auto;html=1;exitX=0.5;exitY=1;exitDx=0;exitDy=0;fontColor=#FFFFFF;strokeColor=#FFFFFF;strokeWidth=3;" edge="1" parent="1" source="efmwLorqoiXp0ajTO6VS-7" target="efmwLorqoiXp0ajTO6VS-10">
          <mxGeometry relative="1" as="geometry">
            <mxPoint x="609.9999999999995" y="470" as="targetPoint" />
          </mxGeometry>
        </mxCell>
        <mxCell id="efmwLorqoiXp0ajTO6VS-12" style="edgeStyle=orthogonalEdgeStyle;rounded=0;orthogonalLoop=1;jettySize=auto;html=1;exitX=0.5;exitY=1;exitDx=0;exitDy=0;entryX=0.5;entryY=0;entryDx=0;entryDy=0;fontColor=#FFFFFF;strokeColor=#FFFFFF;strokeWidth=3;" edge="1" parent="1" source="efmwLorqoiXp0ajTO6VS-7" target="efmwLorqoiXp0ajTO6VS-11">
          <mxGeometry relative="1" as="geometry" />
        </mxCell>
        <mxCell id="efmwLorqoiXp0ajTO6VS-7" value="Adaptable Segmented policy" style="ellipse;whiteSpace=wrap;html=1;fontColor=#FFFFFF;strokeColor=#FFFFFF;strokeWidth=3;fillColor=none;gradientColor=none;" vertex="1" parent="1">
          <mxGeometry x="610" y="380" width="200" height="50" as="geometry" />
        </mxCell>
        <mxCell id="efmwLorqoiXp0ajTO6VS-10" value="&quot;Dumb&quot; XR devices" style="ellipse;whiteSpace=wrap;html=1;fontColor=#FFFFFF;strokeColor=#FFFFFF;strokeWidth=3;fillColor=none;gradientColor=none;" vertex="1" parent="1">
          <mxGeometry x="560" y="490" width="120" height="40" as="geometry" />
        </mxCell>
        <mxCell id="efmwLorqoiXp0ajTO6VS-11" value="&quot;Smart:&quot; XR devices" style="ellipse;whiteSpace=wrap;html=1;fontColor=#FFFFFF;strokeColor=#FFFFFF;strokeWidth=3;fillColor=none;gradientColor=none;" vertex="1" parent="1">
          <mxGeometry x="740" y="490" width="120" height="50" as="geometry" />
        </mxCell>
        <mxCell id="efmwLorqoiXp0ajTO6VS-13" value="" style="ellipse;whiteSpace=wrap;html=1;fontColor=#FFFFFF;strokeColor=#FF3333;strokeWidth=3;fillColor=none;gradientColor=none;" vertex="1" parent="1">
          <mxGeometry x="-210" y="470" width="810" height="300" as="geometry" />
        </mxCell>
        <mxCell id="efmwLorqoiXp0ajTO6VS-14" value="Software Vulnerabilites" style="ellipse;whiteSpace=wrap;html=1;fontColor=#FFFFFF;strokeColor=#FFFFFF;strokeWidth=3;shadow=0;fillOpacity=0;" vertex="1" parent="1">
          <mxGeometry x="400" y="612.5" width="150" height="37.5" as="geometry" />
        </mxCell>
        <mxCell id="efmwLorqoiXp0ajTO6VS-15" value="Data Transmitted" style="ellipse;whiteSpace=wrap;html=1;fontColor=#FFFFFF;strokeColor=#FFFFFF;strokeWidth=3;shadow=0;fillOpacity=0;" vertex="1" parent="1">
          <mxGeometry x="240" y="612.5" width="120" height="32.5" as="geometry" />
        </mxCell>
        <mxCell id="efmwLorqoiXp0ajTO6VS-16" value="Software Security" style="ellipse;whiteSpace=wrap;html=1;fontColor=#FFFFFF;strokeColor=#FFFFFF;strokeWidth=3;shadow=0;fillOpacity=0;" vertex="1" parent="1">
          <mxGeometry x="330" y="510" width="120" height="30" as="geometry" />
        </mxCell>
        <mxCell id="efmwLorqoiXp0ajTO6VS-17" value="EM Communication" style="ellipse;whiteSpace=wrap;html=1;fontColor=#FFFFFF;strokeColor=#FFFFFF;strokeWidth=3;shadow=0;fillOpacity=0;" vertex="1" parent="1">
          <mxGeometry x="80" y="612.5" width="120" height="35" as="geometry" />
        </mxCell>
      </root>
    </mxGraphModel>
  </diagram>
</mxfile>
